<?xml version="1.0" encoding="utf-8"?>
<?xml-stylesheet type="text/xsl" href="rss1.xsl"?>
<rss version="2.0" xmlns:atom="http://www.w3.org/2005/Atom" xmlns:content="http://purl.org/rss/1.0/modules/content/" xmlns:dc="http://purl.org/dc/elements/1.1/" xmlns:media="http://search.yahoo.com/mrss/">
<channel>
 <title>Getty</title>
 <link>http://www.gettyimg.com/</link>
 <atom:link href="http://www.gettyimg.com/" rel="self" type="application/rss+xml" />

 
                <item>
                <title><![CDATA[【Apple Music】WEB-RiP - Jerrod Niemann - Drink to That All Night (Remix) [feat. Pitbull] (1080p)]]></title>
                <link><![CDATA[https://sharemania.us/threads/jerrod-niemann-drink-to-that-all-night-remix-feat-pitbull-1080p.248530/]]></link>
                <description><![CDATA[<article>
<blockquote class="messageText SelectQuoteContainer ugc baseHtml">
<img src="https://i.postimg.cc/k5QmQFwW/Jerrod-Niemann-Drink-to-That-All-Night-Remix-feat-Pitbull-mp4.jpg" class="bbCodeImage LbImage" alt="[​IMG]" data-url="https://i.postimg.cc/k5QmQFwW/Jerrod-Niemann-Drink-to-That-All-Night-Remix-feat-Pitbull-mp4.jpg" style=""><br>
<br>
<div class="bbCodeBlock bbCodeCode">
<div class="type">Code:</div>
<pre>General
Complete name                  : G:\Новая папка\Jerrod Niemann - Drink to That All Night (Remix) [feat. Pitbull].mp4
Format                         : MPEG-4
Format profile                 : Base Media
Codec ID                       : isom (isom/iso2/avc1/mp41)
File size                      : 176 MiB
Duration                       : 3 min 29 s
Overall bit rate               : 7 040 kb/s
Frame rate                     : 23.976 FPS
Movie name                     : Drink to That All Night (Remix) [feat. Pitbull]
Performer                      : Jerrod Niemann
Genre                          : Country
ContentType                    : Music Video
Recorded date                  : 2014-02-05 08:00:00 UTC
Writing application            : Lavf56.30.100
Copyright                      : ℗ (C) 2014 Sony Music Entertainment

Video
ID                             : 1
Format                         : AVC
Format/Info                    : Advanced Video Codec
Format profile                 : High@L4
Format settings                : CABAC / 4 Ref Frames
Format settings, CABAC         : Yes
Format settings, Reference fra : 4 frames
Format settings, Slice count   : 8 slices per frame
Codec ID                       : avc1
Codec ID/Info                  : Advanced Video Coding
Duration                       : 3 min 29 s
Bit rate                       : 6 789 kb/s
Width                          : 1 920 pixels
Height                         : 1 080 pixels
Display aspect ratio           : 16:9
Frame rate mode                : Constant
Frame rate                     : 23.976 (23976/1000) FPS
Color space                    : YUV
Chroma subsampling             : 4:2:0
Bit depth                      : 8 bits
Scan type                      : Progressive
Bits/(Pixel*Frame)             : 0.137
Stream size                    : 169 MiB (96%)
Language                       : English
Color range                    : Limited
Color primaries                : BT.709
Transfer characteristics       : BT.709
Matrix coefficients            : BT.709
Codec configuration box        : avcC

Audio
ID                             : 2
Format                         : AAC LC
Format/Info                    : Advanced Audio Codec Low Complexity
Codec ID                       : mp4a-40-2
Duration                       : 3 min 29 s
Duration_LastFrame             : -5 ms
Bit rate mode                  : Constant
Bit rate                       : 248 kb/s
Channel(s)                     : 2 channels
Channel layout                 : L R
Sampling rate                  : 48.0 kHz
Frame rate                     : 46.875 FPS (1024 SPF)
Compression mode               : Lossy
Stream size                    : 6.19 MiB (4%)
Default                        : Yes
Alternate group                : 1

</pre>
</div>
<div class="bbCodeBlock bbCodeVfcHH HiddenContent">
<div class="attribution type">Hidden Content:</div>
<blockquote>You must either reply or click 'Like' to see the hidden information contained here.</blockquote>
</div>
<div class="messageTextEndMarker">&nbsp;</div>
</blockquote>
</article>]]></description>
                <author><![CDATA[vitalya3]]></author>
                </item>

                
                <item>
                <title><![CDATA[【Apple Music】WEB-RiP - Victoria Kern - Ride Ride Ride (feat. Anna Grey) (1080p)]]></title>
                <link><![CDATA[https://sharemania.us/threads/victoria-kern-ride-ride-ride-feat-anna-grey-1080p.248531/]]></link>
                <description><![CDATA[<article>
<blockquote class="messageText SelectQuoteContainer ugc baseHtml">
<img src="https://i.postimg.cc/mDZgh5RP/Victoria-Kern-Ride-Ride-Ride-feat-Anna-Grey-mp4.jpg" class="bbCodeImage LbImage" alt="[​IMG]" data-url="https://i.postimg.cc/mDZgh5RP/Victoria-Kern-Ride-Ride-Ride-feat-Anna-Grey-mp4.jpg" style=""><br>
<br>
<div class="bbCodeBlock bbCodeCode">
<div class="type">Code:</div>
<pre>General
Complete name                  : G:\Новая папка\Victoria Kern - Ride Ride Ride (feat. Anna Grey).mp4
Format                         : MPEG-4
Format profile                 : Base Media
Codec ID                       : isom (isom/iso2/avc1/mp41)
File size                      : 199 MiB
Duration                       : 2 min 44 s
Overall bit rate               : 10.1 Mb/s
Frame rate                     : 25.000 FPS
Movie name                     : Ride Ride Ride (feat. Anna Grey)
Performer                      : Victoria Kern
Genre                          : Dance
ContentType                    : Music Video
Recorded date                  : 2022-06-25 07:00:00 UTC
Writing application            : Lavf56.30.100
Copyright                      : ℗ 2022 Kontor Records GmbH / Crash Your Sound

Video
ID                             : 1
Format                         : AVC
Format/Info                    : Advanced Video Codec
Format profile                 : High@L4
Format settings                : CABAC / 4 Ref Frames
Format settings, CABAC         : Yes
Format settings, Reference fra : 4 frames
Format settings, Slice count   : 8 slices per frame
Codec ID                       : avc1
Codec ID/Info                  : Advanced Video Coding
Duration                       : 2 min 44 s
Bit rate                       : 9 866 kb/s
Width                          : 1 920 pixels
Height                         : 1 080 pixels
Display aspect ratio           : 16:9
Frame rate mode                : Constant
Frame rate                     : 25.000 FPS
Color space                    : YUV
Chroma subsampling             : 4:2:0
Bit depth                      : 8 bits
Scan type                      : Progressive
Bits/(Pixel*Frame)             : 0.190
Stream size                    : 194 MiB (97%)
Color range                    : Limited
Color primaries                : BT.709
Transfer characteristics       : BT.709
Matrix coefficients            : BT.709
Codec configuration box        : avcC

Audio
ID                             : 2
Format                         : AAC LC
Format/Info                    : Advanced Audio Codec Low Complexity
Codec ID                       : mp4a-40-2
Duration                       : 2 min 44 s
Duration_LastFrame             : -1 ms
Bit rate mode                  : Constant
Bit rate                       : 251 kb/s
Channel(s)                     : 2 channels
Channel layout                 : L R
Sampling rate                  : 48.0 kHz
Frame rate                     : 46.875 FPS (1024 SPF)
Compression mode               : Lossy
Stream size                    : 4.93 MiB (2%)
Default                        : Yes
Alternate group                : 1

</pre>
</div>
<div class="bbCodeBlock bbCodeVfcHH HiddenContent">
<div class="attribution type">Hidden Content:</div>
<blockquote>You must either reply or click 'Like' to see the hidden information contained here.</blockquote>
</div>
<div class="messageTextEndMarker">&nbsp;</div>
</blockquote>
</article>]]></description>
                <author><![CDATA[vitalya3]]></author>
                </item>

                
                <item>
                <title><![CDATA[【Singles (lossless)】FLAC - OuiOui (위위) - 2024 - 너가 내게 내리던 그 밤 [Single] [16bit-44.1kHz]]]></title>
                <link><![CDATA[https://sharemania.us/threads/ouioui-%EC%9C%84%EC%9C%84-2024-%EB%84%88%EA%B0%80-%EB%82%B4%EA%B2%8C-%EB%82%B4%EB%A6%AC%EB%8D%98-%EA%B7%B8-%EB%B0%A4-single-16bit-44-1khz.248534/]]></link>
                <description><![CDATA[<article>
<blockquote class="messageText SelectQuoteContainer ugc baseHtml">
<div style="text-align: center"><img src="https://i.imgur.com/4c4GZ35.jpeg" class="bbCodeImage LbImage" alt="[​IMG]" data-url="https://i.imgur.com/4c4GZ35.jpeg" style=""> <br>
<br>
<b>Artist</b>: OuiOui (위위) <br>
<b>Single</b>: 너가 내게 내리던 그 밤 <br>
<b>Date</b>: 25 June 2024<br>
<b>Genre</b>: Indie / R&amp;B / Soul<br>
<b>Quality</b>: 16bit-44.1kHz<br>
<b>Country</b>: South Korea<br>
<b>Size</b>: 26,1MB<br>
<br>
<b>Tracklist</b>:<br>
<br>
1. 너가 내게 내리던 그 밤 03:38<br>
<br>
<b><span style="font-size: 22px"><span style="color: #b30000">Send.cm</span></span></b>:<br>
<br>
<div class="bbCodeBlock bbCodeVfcHH HiddenContent">
<div class="attribution type">Hidden Content:</div>
<blockquote>You must either reply or click 'Like' to see the hidden information contained here.</blockquote>
</div></div>
<div class="messageTextEndMarker">&nbsp;</div>
</blockquote>
</article>]]></description>
                <author><![CDATA[XRB80]]></author>
                </item>

                
                <item>
                <title><![CDATA[【Requests】[REQ AUD] - Chante Moore - As If We Never Met (Remix)]]></title>
                <link><![CDATA[https://sharemania.us/threads/chante-moore-as-if-we-never-met-remix.248533/]]></link>
                <description><![CDATA[<article>
<blockquote class="messageText SelectQuoteContainer ugc baseHtml">
Hi Guys, <br>
<br>
Can someone locate this single? I'm after the remixed vocal version. HQ only please. <br>
<br>
<a href="https://www.discogs.com/release/2006041-Chant%C3%A9-Moore-As-If-We-Never-Met" target="_blank" class="externalLink" rel="nofollow">https://www.discogs.com/release/2006041-Chanté-Moore-As-If-We-Never-Met</a><br>
<br>
<br>
Thank you so much!
<div class="messageTextEndMarker">&nbsp;</div>
</blockquote>
</article>]]></description>
                <author><![CDATA[InMyPocket]]></author>
                </item>

                
                <item>
                <title><![CDATA[【Apple Music】WEB-RiP - Victoria Kern - Ich will nicht, dass du gehst (1080p)]]></title>
                <link><![CDATA[https://sharemania.us/threads/victoria-kern-ich-will-nicht-dass-du-gehst-1080p.248532/]]></link>
                <description><![CDATA[<article>
<blockquote class="messageText SelectQuoteContainer ugc baseHtml">
<img src="https://i.postimg.cc/kMRYHNkS/Victoria-Kern-Ich-will-nicht-dass-du-gehst-mp4.jpg" class="bbCodeImage LbImage" alt="[​IMG]" data-url="https://i.postimg.cc/kMRYHNkS/Victoria-Kern-Ich-will-nicht-dass-du-gehst-mp4.jpg" style=""><br>
<br>
<div class="bbCodeBlock bbCodeCode">
<div class="type">Code:</div>
<pre>General
Complete name                  : G:\Новая папка\Victoria Kern - Ich will nicht, dass du gehst.mp4
Format                         : MPEG-4
Format profile                 : Base Media
Codec ID                       : isom (isom/iso2/avc1/mp41)
File size                      : 149 MiB
Duration                       : 3 min 2 s
Overall bit rate               : 6 826 kb/s
Frame rate                     : 25.000 FPS
Movie name                     : Ich will nicht, dass du gehst
Performer                      : Victoria Kern
Genre                          : German Pop
ContentType                    : Music Video
Recorded date                  : 2023-01-21 08:00:00 UTC
Writing application            : Lavf56.30.100
Copyright                      : ℗ 2023 VIA Music

Video
ID                             : 1
Format                         : AVC
Format/Info                    : Advanced Video Codec
Format profile                 : High@L4
Format settings                : CABAC / 4 Ref Frames
Format settings, CABAC         : Yes
Format settings, Reference fra : 4 frames
Format settings, Slice count   : 8 slices per frame
Codec ID                       : avc1
Codec ID/Info                  : Advanced Video Coding
Duration                       : 3 min 2 s
Bit rate                       : 6 561 kb/s
Width                          : 1 920 pixels
Height                         : 960 pixels
Display aspect ratio           : 2.000
Frame rate mode                : Constant
Frame rate                     : 25.000 FPS
Color space                    : YUV
Chroma subsampling             : 4:2:0
Bit depth                      : 8 bits
Scan type                      : Progressive
Bits/(Pixel*Frame)             : 0.142
Stream size                    : 143 MiB (96%)
Color range                    : Limited
Color primaries                : BT.709
Transfer characteristics       : BT.709
Matrix coefficients            : BT.709
Codec configuration box        : avcC

Audio
ID                             : 2
Format                         : AAC LC
Format/Info                    : Advanced Audio Codec Low Complexity
Codec ID                       : mp4a-40-2
Duration                       : 3 min 2 s
Duration_LastFrame             : -21 ms
Bit rate mode                  : Constant
Bit rate                       : 265 kb/s
Channel(s)                     : 2 channels
Channel layout                 : L R
Sampling rate                  : 48.0 kHz
Frame rate                     : 46.875 FPS (1024 SPF)
Compression mode               : Lossy
Stream size                    : 5.69 MiB (4%)
Default                        : Yes
Alternate group                : 1

</pre>
</div>
<div class="bbCodeBlock bbCodeVfcHH HiddenContent">
<div class="attribution type">Hidden Content:</div>
<blockquote>You must either reply or click 'Like' to see the hidden information contained here.</blockquote>
</div>
<div class="messageTextEndMarker">&nbsp;</div>
</blockquote>
</article>]]></description>
                <author><![CDATA[vitalya3]]></author>
                </item>

                
                <item>
                <title><![CDATA[【Apple Music】WEB-RiP - Keshia Chanté - Unpredictable (1080p)]]></title>
                <link><![CDATA[https://sharemania.us/threads/keshia-chant%C3%A9-unpredictable-1080p.248529/]]></link>
                <description><![CDATA[<article>
<blockquote class="messageText SelectQuoteContainer ugc baseHtml">
<img src="https://i.postimg.cc/YqqxNr29/Keshia-Chant-Unpredictable-mp4.jpg" class="bbCodeImage LbImage" alt="[​IMG]" data-url="https://i.postimg.cc/YqqxNr29/Keshia-Chant-Unpredictable-mp4.jpg" style=""><br>
<br>
<div class="bbCodeBlock bbCodeCode">
<div class="type">Code:</div>
<pre>General
Complete name                  : G:\Новая папка\Keshia Chanté - Unpredictable.mp4
Format                         : MPEG-4
Format profile                 : Base Media
Codec ID                       : isom (isom/iso2/avc1/mp41)
File size                      : 182 MiB
Duration                       : 3 min 36 s
Overall bit rate               : 7 033 kb/s
Frame rate                     : 23.976 FPS
Movie name                     : Unpredictable
Performer                      : Keshia Chanté
Genre                          : R&amp;B/Soul
ContentType                    : Music Video
Recorded date                  : 2003-01-01 08:00:00 UTC
Writing application            : Lavf56.30.100
Copyright                      : ℗ (C) 2003 Sony Music Entertainment Canada Inc.

Video
ID                             : 1
Format                         : AVC
Format/Info                    : Advanced Video Codec
Format profile                 : High@L4
Format settings                : CABAC / 5 Ref Frames
Format settings, CABAC         : Yes
Format settings, Reference fra : 5 frames
Format settings, Slice count   : 8 slices per frame
Codec ID                       : avc1
Codec ID/Info                  : Advanced Video Coding
Duration                       : 3 min 36 s
Bit rate                       : 6 765 kb/s
Width                          : 1 920 pixels
Height                         : 816 pixels
Display aspect ratio           : 2.35:1
Frame rate mode                : Constant
Frame rate                     : 23.976 (24000/1001) FPS
Color space                    : YUV
Chroma subsampling             : 4:2:0
Bit depth                      : 8 bits
Scan type                      : Progressive
Bits/(Pixel*Frame)             : 0.180
Stream size                    : 175 MiB (96%)
Language                       : English
Color range                    : Limited
Color primaries                : BT.709
Transfer characteristics       : BT.709
Matrix coefficients            : BT.709
Codec configuration box        : avcC

Audio
ID                             : 2
Format                         : AAC LC
Format/Info                    : Advanced Audio Codec Low Complexity
Codec ID                       : mp4a-40-2
Duration                       : 3 min 36 s
Duration_LastFrame             : -2 ms
Bit rate mode                  : Constant
Bit rate                       : 265 kb/s
Channel(s)                     : 2 channels
Channel layout                 : L R
Sampling rate                  : 48.0 kHz
Frame rate                     : 46.875 FPS (1024 SPF)
Compression mode               : Lossy
Stream size                    : 6.79 MiB (4%)
Default                        : Yes
Alternate group                : 1

</pre>
</div>
<div class="bbCodeBlock bbCodeVfcHH HiddenContent">
<div class="attribution type">Hidden Content:</div>
<blockquote>You must either reply or click 'Like' to see the hidden information contained here.</blockquote>
</div>
<div class="messageTextEndMarker">&nbsp;</div>
</blockquote>
</article>]]></description>
                <author><![CDATA[vitalya3]]></author>
                </item>

                </channel></rss>